<svg version="1.1" id="final_svg" xmlns="http://www.w3.org/2000/svg" xmlns:xlink="http://www.w3.org/1999/xlink" x="0px" y="0px" viewBox="498.4209899902344 278.4375 503.7999572753906 141.75" style="enable-background:new 0 0 315 315;" xml:space="preserve">
      <style type="text/css">.st0{fill:url(#SVGID_1_);}	.st1{fill:url(#SVGID_2_);}</style>
    <g id="color_index_g" transform="translate(498.4210049438477, 278.4375) scale(0.45)" opacity="1">
              <linearGradient id="SVGID_1_" gradientUnits="userSpaceOnUse" x1="-15" y1="157.5" x2="684.1666" y2="157.5">
                      <stop offset="0" style="stop-color:#47008f"></stop>
            <stop offset="1" style="stop-color:#38e16e"></stop>
                  </linearGradient>
        <linearGradient id="SVGID_2_" gradientUnits="userSpaceOnUse" x1="-15" y1="157.5" x2="684.1666" y2="157.5">
                      <stop offset="0" style="stop-color:#47008f"></stop>
            <stop offset="1" style="stop-color:#38e16e"></stop>
                  </linearGradient>
        <path class="st0" d="M157.5,10C239,10,305,76,305,157.5c0,39.1-15.5,76.6-43.2,104.3c-57.6,57.6-151,57.6-208.6,0
		s-57.6-151,0-208.6C80.8,25.4,118.4,9.9,157.5,10 M157.5,0C70.5,0,0,70.5,0,157.5S70.5,315,157.5,315S315,244.5,315,157.5
		S244.5,0,157.5,0z"></path>
        <path class="st1" d="M147.4,239.4h-2.2c-4-0.6-7.6-2.7-10-5.9c-2.3-3-3.4-6.7-3-10.5c-0.1-0.8-0.1-1.5,0.1-2.3l20.3-132
		c1.1-7.5,7.5-13.1,15.1-13.1h0.1c8.1,0.1,14.7,6.6,15,14.7c0.1,0.9,0.1,1.8-0.1,2.7l-20.2,131.5c0,0.6,0,1.3-0.2,1.9
		c-0.5,3.9-2.6,7.5-5.8,9.9C153.9,238.3,150.7,239.4,147.4,239.4z M142.2,222.1v0.4l-0.2,1c-0.1,1.3,0.2,2.7,1,3.8
		c0.9,1.1,2.1,1.8,3.5,2c1.3,0.2,2.7-0.1,3.8-0.9c1.1-0.9,1.9-2.1,2.1-3.5v-1.2l20.4-132.3l0,0v-0.6c-0.1-2.8-2.3-5.1-5.1-5.2
		c-2.7,0-4.9,2-5.2,4.6L142.2,222.1z M117.9,213.5c-4.7,0-9.1-2.1-12-5.8L67,168.8h-0.1l-1.5-1.5c-2.8-2.9-4.3-6.7-4.3-10.7
		c0-4,1.6-7.9,4.5-10.7l40.7-40.7c2.9-2.7,6.6-4.3,10.6-4.3h0.2c4,0.1,7.8,1.8,10.6,4.6l0.3,0.2c2.7,2.9,4.2,6.8,4.1,10.8
		c-0.1,4-1.8,7.8-4.7,10.5l-29.7,29.7l30.4,30.3c0.7,0.6,1.3,1.3,1.8,2h0.1c5,6.7,3.7,16.2-3,21.3
		C124.4,212.4,121.2,213.5,117.9,213.5L117.9,213.5z M72.1,159.7l41.6,41.7c1.7,2.3,5,2.7,7.3,1c0,0,0,0,0,0c2.3-1.7,2.7-4.9,1-7.1
		c0,0,0,0,0-0.1c-0.1-0.2-0.2-0.4-0.4-0.6l-0.4-0.4l-0.7-0.7l-37-36.8l37-37c1-0.9,1.6-2.2,1.6-3.5c0-1.3-0.5-2.6-1.4-3.6l0,0
		c-1.1-1-2.5-1.5-3.9-1.6c-1.3,0-2.6,0.6-3.6,1.5L72.6,153C70.8,154.8,70.6,157.6,72.1,159.7z M197.9,212.8c-4.3,0-8.4-1.8-11.3-5
		c-5.6-6.2-5.1-15.7,1.1-21.3l29.6-29.8l-29.5-29.5c-0.5-0.5-1.1-1-1.5-1.6c-4.3-5.8-3.9-13.9,1-19.3c2.7-3,6.5-4.7,10.5-4.9
		c4-0.2,8,1.2,11,3.9v0.2l40,40.1c3.1,2.8,5,6.7,5.1,10.9v0.4c-0.1,3.9-1.7,7.7-4.5,10.5L208,208.9
		C205.2,211.4,201.6,212.8,197.9,212.8L197.9,212.8z M194.2,119.5h0.1l37.2,37.2l-37.1,37.2c-2.1,1.9-2.2,5.1-0.3,7.2
		c1.9,2.1,5.1,2.3,7.2,0.5l41.2-41.2c0.9-1,1.5-2.3,1.5-3.7c-0.1-1.4-0.7-2.8-1.8-3.7l-0.2-0.3l-40-40.1c-1-0.8-2.4-1.3-3.7-1.3
		c-1.4,0.1-2.7,0.7-3.6,1.8C193,114.8,192.8,117.5,194.2,119.5L194.2,119.5z"></path>
          </g>
    <g fill="#363f5a" id="text_group" transform="translate(660.1710049438477, 310.4125)" opacity="1.0">
              <path d="M10.22 41.18L30 17.04L30 12.86L2.30 12.86L2.30 18.14L21.74 18.14L1.97 42.29L1.97 46.46L30.62 46.46L30.62 41.18ZM59.86 33.79C59.86 25.78 54.38 20.54 46.90 20.54C39.26 20.54 33.65 26.02 33.65 33.65C33.65 41.28 39.22 46.80 47.81 46.80C52.22 46.80 55.82 45.36 58.13 42.62L54.91 38.93C53.09 40.80 50.83 41.71 47.95 41.71C43.49 41.71 40.37 39.31 39.65 35.57L59.76 35.57C59.81 34.99 59.86 34.27 59.86 33.79ZM46.90 25.34C50.83 25.34 53.66 27.89 54.14 31.58L39.60 31.58C40.18 27.84 43.01 25.34 46.90 25.34ZM65.62 46.46L71.62 46.46L71.62 10.85L65.62 10.85ZM103.58 33.79C103.58 25.78 98.11 20.54 90.62 20.54C82.99 20.54 77.38 26.02 77.38 33.65C77.38 41.28 82.94 46.80 91.54 46.80C95.95 46.80 99.55 45.36 101.86 42.62L98.64 38.93C96.82 40.80 94.56 41.71 91.68 41.71C87.22 41.71 84.10 39.31 83.38 35.57L103.49 35.57C103.54 34.99 103.58 34.27 103.58 33.79ZM90.62 25.34C94.56 25.34 97.39 27.89 97.87 31.58L83.33 31.58C83.90 27.84 86.74 25.34 90.62 25.34ZM115.34 46.46L115.34 33.50C115.34 28.37 118.22 25.78 122.50 25.78C126.34 25.78 128.59 27.98 128.59 32.54L128.59 46.46L134.59 46.46L134.59 31.78C134.59 24.05 130.03 20.54 123.89 20.54C120.14 20.54 117.02 21.79 115.06 24.14L115.06 20.83L109.34 20.83L109.34 46.46ZM153.74 46.80C161.71 46.80 167.42 41.33 167.42 33.65C167.42 25.97 161.71 20.54 153.74 20.54C145.87 20.54 140.11 25.97 140.11 33.65C140.11 41.33 145.87 46.80 153.74 46.80ZM153.74 41.66C149.42 41.66 146.16 38.54 146.16 33.65C146.16 28.75 149.42 25.63 153.74 25.63C158.11 25.63 161.38 28.75 161.38 33.65C161.38 38.54 158.11 41.66 153.74 41.66ZM180.00 46.46L186.19 46.46L197.18 20.83L191.42 20.83L183.22 39.84L175.25 20.83L169.01 20.83ZM208.66 46.80C212.50 46.80 215.28 45.55 216.72 43.34L216.72 46.46L222.38 46.46L222.38 31.44C222.38 24.05 218.11 20.54 210.72 20.54C206.59 20.54 202.61 21.60 199.87 23.71L202.22 28.08C204.14 26.50 207.12 25.54 210.00 25.54C214.27 25.54 216.38 27.60 216.38 31.10L216.38 31.49L209.76 31.49C201.98 31.49 199.10 34.85 199.10 39.12C199.10 43.58 202.80 46.80 208.66 46.80ZM205.01 38.88C205.01 37.01 206.11 35.47 210.19 35.47L216.38 35.47L216.38 38.45C215.38 41.09 212.83 42.43 209.90 42.43C206.83 42.43 205.01 41.04 205.01 38.88ZM227.42 12.86L238.56 46.46L245.23 46.46L253.68 21.60L261.98 46.46L268.61 46.46L279.74 12.86L273.79 12.86L265.20 38.54L256.70 12.86L250.94 12.86L242.26 38.40L233.90 12.86ZM309.07 33.79C309.07 25.78 303.60 20.54 296.11 20.54C288.48 20.54 282.86 26.02 282.86 33.65C282.86 41.28 288.43 46.80 297.02 46.80C301.44 46.80 305.04 45.36 307.34 42.62L304.13 38.93C302.30 40.80 300.05 41.71 297.17 41.71C292.70 41.71 289.58 39.31 288.86 35.57L308.98 35.57C309.02 34.99 309.07 34.27 309.07 33.79ZM296.11 25.34C300.05 25.34 302.88 27.89 303.36 31.58L288.82 31.58C289.39 27.84 292.22 25.34 296.11 25.34ZM329.04 20.54C325.78 20.54 322.90 21.65 320.83 23.95L320.83 10.85L314.83 10.85L314.83 46.46L320.54 46.46L320.54 43.15C322.56 45.60 325.54 46.80 329.04 46.80C336.53 46.80 342.05 41.62 342.05 33.65C342.05 25.68 336.53 20.54 329.04 20.54ZM328.37 41.66C324.05 41.66 320.74 38.54 320.74 33.65C320.74 28.75 324.05 25.63 328.37 25.63C332.69 25.63 335.95 28.75 335.95 33.65C335.95 38.54 332.69 41.66 328.37 41.66Z"></path>
          </g>
    <g fill="#7683a8" id="tagline_group" transform="translate(660.1710049438477, 366.65250000000003)" opacity="1.0">
              <path d="M4.28 28.12L1.26 12.44L5.18 12.44L7.06 24.53Q7.33 24.20 7.69 23.62Q8.05 23.03 8.41 22.41Q8.76 21.78 9.11 21.19Q9.45 20.61 9.66 20.28L9.66 20.28L7.99 12.44L11.49 12.44L12.26 17.29Q12.44 16.96 12.76 16.29Q13.07 15.61 13.40 14.88Q13.73 14.15 14.00 13.48Q14.27 12.80 14.36 12.44L14.36 12.44L17.62 12.44Q16.90 14.57 15.99 16.45Q15.08 18.34 13.82 20.25L13.82 20.25L14.60 23.84Q15.79 22.23 16.72 20.85Q17.65 19.47 18.37 18.14Q19.08 16.81 19.67 15.44Q20.25 14.06 20.82 12.44L20.82 12.44L24.50 12.44Q23.15 16.36 20.77 20.28Q18.40 24.20 15.08 28.12L15.08 28.12L12.06 28.12L11.19 23.00Q10.98 23.30 10.53 24.04Q10.08 24.77 9.59 25.58Q9.09 26.38 8.63 27.10Q8.17 27.82 7.93 28.12L7.93 28.12L4.28 28.12ZM30.33 28.42L30.33 28.42Q28.84 28.42 27.65 27.92Q26.47 27.43 25.64 26.55Q24.80 25.67 24.36 24.45Q23.93 23.24 23.93 21.81L23.93 21.81Q23.93 19.86 24.69 18.11Q25.46 16.36 26.79 15.05Q28.12 13.73 29.93 12.95Q31.74 12.17 33.83 12.17L33.83 12.17Q36.37 12.17 37.89 13.30Q39.40 14.42 39.40 16.54L39.40 16.54Q39.40 21.60 30.36 21.60L30.36 21.60Q29.82 21.60 29.26 21.60Q28.69 21.60 28.06 21.54L28.06 21.54L28.06 21.93Q28.06 23.51 28.78 24.50Q29.49 25.49 31.05 25.49L31.05 25.49Q32.25 25.49 33.31 24.92Q34.37 24.35 35.00 23.33L35.00 23.33L38.17 24.32Q37.57 25.22 36.70 25.98Q35.84 26.74 34.80 27.28Q33.77 27.82 32.64 28.12Q31.50 28.42 30.33 28.42ZM33.23 15.08L33.23 15.08Q32.37 15.08 31.62 15.39Q30.87 15.70 30.29 16.24Q29.70 16.78 29.26 17.50Q28.81 18.22 28.54 19.02L28.54 19.02Q29.02 19.05 29.46 19.05Q29.91 19.05 30.39 19.05L30.39 19.05Q31.83 19.05 32.83 18.91Q33.83 18.76 34.45 18.46Q35.06 18.16 35.33 17.75Q35.60 17.35 35.60 16.81L35.60 16.81Q35.60 15.94 34.94 15.51Q34.28 15.08 33.23 15.08ZM48.37 28.42L48.37 28.42Q46.61 28.42 45.47 27.61Q44.33 26.80 43.88 25.40L43.88 25.40L43.31 28.12L39.81 28.12L44.45 6.28L48.46 6.28L46.55 15.20Q47.59 13.82 49.07 13.00Q50.55 12.17 52.17 12.17L52.17 12.17Q53.43 12.17 54.37 12.67Q55.31 13.16 55.97 14.03Q56.63 14.90 56.96 16.05Q57.28 17.20 57.28 18.52L57.28 18.52Q57.28 20.55 56.54 22.35Q55.79 24.14 54.55 25.49Q53.31 26.83 51.69 27.63Q50.08 28.42 48.37 28.42ZM48.07 25.01L48.07 25.01Q49.03 25.01 49.93 24.54Q50.82 24.08 51.53 23.29Q52.23 22.49 52.65 21.46Q53.07 20.43 53.07 19.29L53.07 19.29Q53.07 18.55 52.87 17.87Q52.68 17.20 52.32 16.69Q51.96 16.18 51.42 15.88Q50.88 15.58 50.19 15.58L50.19 15.58Q48.97 15.58 47.79 16.47Q46.61 17.35 45.83 18.64L45.83 18.64L45.02 22.38Q45.20 23.51 46.02 24.26Q46.84 25.01 48.07 25.01ZM68.02 21.72L59.38 21.72L60.16 18.10L68.80 18.10L68.02 21.72ZM76.28 28.42L76.28 28.42Q74.96 28.42 73.93 27.92Q72.90 27.43 72.18 26.56Q71.46 25.70 71.09 24.51Q70.72 23.33 70.72 21.99L70.72 21.99Q70.72 20.04 71.42 18.26Q72.12 16.48 73.30 15.14Q74.48 13.79 76.04 12.98Q77.60 12.17 79.30 12.17L79.30 12.17Q80.92 12.17 82.05 13.01Q83.19 13.85 83.61 15.20L83.61 15.20L85.52 6.28L89.53 6.28L85.88 23.51Q85.79 23.84 85.79 24.05L85.79 24.05Q85.79 24.68 86.51 24.71L86.51 24.71L85.79 28.12Q85.25 28.21 84.85 28.27Q84.45 28.33 84.15 28.33L84.15 28.33Q83.10 28.33 82.49 27.91Q81.87 27.49 81.87 26.62L81.87 26.62Q81.87 26.38 81.92 26.10Q81.96 25.82 82.05 25.40L82.05 25.40Q80.92 26.89 79.38 27.65Q77.83 28.42 76.28 28.42ZM78.07 25.01L78.07 25.01Q78.58 25.01 79.17 24.81Q79.75 24.62 80.29 24.26Q80.83 23.90 81.30 23.42Q81.78 22.94 82.11 22.38L82.11 22.38L82.89 18.64Q82.71 17.32 81.84 16.45Q80.98 15.58 79.84 15.58L79.84 15.58Q78.88 15.58 77.98 16.08Q77.09 16.57 76.41 17.39Q75.74 18.22 75.34 19.25Q74.93 20.28 74.93 21.36L74.93 21.36Q74.93 22.91 75.77 23.96Q76.61 25.01 78.07 25.01ZM95.81 28.42L95.81 28.42Q94.32 28.42 93.14 27.92Q91.95 27.43 91.12 26.55Q90.28 25.67 89.84 24.45Q89.41 23.24 89.41 21.81L89.41 21.81Q89.41 19.86 90.17 18.11Q90.94 16.36 92.27 15.05Q93.60 13.73 95.41 12.95Q97.22 12.17 99.31 12.17L99.31 12.17Q101.86 12.17 103.37 13.30Q104.88 14.42 104.88 16.54L104.88 16.54Q104.88 21.60 95.84 21.60L95.84 21.60Q95.30 21.60 94.74 21.60Q94.17 21.60 93.54 21.54L93.54 21.54L93.54 21.93Q93.54 23.51 94.26 24.50Q94.98 25.49 96.53 25.49L96.53 25.49Q97.73 25.49 98.79 24.92Q99.85 24.35 100.48 23.33L100.48 23.33L103.65 24.32Q103.05 25.22 102.18 25.98Q101.32 26.74 100.28 27.28Q99.25 27.82 98.12 28.12Q96.98 28.42 95.81 28.42ZM98.71 15.08L98.71 15.08Q97.85 15.08 97.10 15.39Q96.35 15.70 95.77 16.24Q95.18 16.78 94.74 17.50Q94.29 18.22 94.02 19.02L94.02 19.02Q94.50 19.05 94.95 19.05Q95.39 19.05 95.87 19.05L95.87 19.05Q97.31 19.05 98.31 18.91Q99.31 18.76 99.93 18.46Q100.54 18.16 100.81 17.75Q101.08 17.35 101.08 16.81L101.08 16.81Q101.08 15.94 100.42 15.51Q99.76 15.08 98.71 15.08ZM108.68 28.12L106.58 12.44L110.74 12.44L111.70 24.86Q112.77 23.21 113.66 21.69Q114.54 20.16 115.27 18.65Q116.00 17.14 116.59 15.63Q117.17 14.12 117.65 12.44L117.65 12.44L121.33 12.44Q120.25 16.36 118.08 20.28Q115.91 24.20 112.86 28.12L112.86 28.12L108.68 28.12ZM127.49 28.42L127.49 28.42Q126.00 28.42 124.81 27.92Q123.63 27.43 122.79 26.55Q121.96 25.67 121.52 24.45Q121.09 23.24 121.09 21.81L121.09 21.81Q121.09 19.86 121.85 18.11Q122.62 16.36 123.95 15.05Q125.28 13.73 127.09 12.95Q128.90 12.17 130.99 12.17L130.99 12.17Q133.53 12.17 135.04 13.30Q136.55 14.42 136.55 16.54L136.55 16.54Q136.55 21.60 127.52 21.60L127.52 21.60Q126.98 21.60 126.41 21.60Q125.85 21.60 125.22 21.54L125.22 21.54L125.22 21.93Q125.22 23.51 125.94 24.50Q126.65 25.49 128.21 25.49L128.21 25.49Q129.41 25.49 130.47 24.92Q131.53 24.35 132.16 23.33L132.16 23.33L135.33 24.32Q134.73 25.22 133.86 25.98Q132.99 26.74 131.96 27.28Q130.93 27.82 129.79 28.12Q128.66 28.42 127.49 28.42ZM130.39 15.08L130.39 15.08Q129.52 15.08 128.78 15.39Q128.03 15.70 127.45 16.24Q126.86 16.78 126.41 17.50Q125.97 18.22 125.70 19.02L125.70 19.02Q126.17 19.05 126.62 19.05Q127.07 19.05 127.55 19.05L127.55 19.05Q128.99 19.05 129.99 18.91Q130.99 18.76 131.60 18.46Q132.22 18.16 132.49 17.75Q132.76 17.35 132.76 16.81L132.76 16.81Q132.76 15.94 132.10 15.51Q131.44 15.08 130.39 15.08ZM140.71 28.36L140.71 28.36Q139.19 28.36 138.38 27.65Q137.57 26.95 137.57 25.64L137.57 25.64Q137.57 25.37 137.60 25.10Q137.63 24.83 137.69 24.50L137.69 24.50L141.58 6.28L145.56 6.28L142.00 23.09Q141.97 23.24 141.95 23.39Q141.94 23.54 141.94 23.69L141.94 23.69Q141.94 24.92 143.17 24.92L143.17 24.92Q143.49 24.92 143.93 24.80Q144.36 24.68 144.75 24.50L144.75 24.50L144.63 27.55Q143.76 27.94 142.67 28.15Q141.58 28.36 140.71 28.36ZM152.98 28.42L152.98 28.42Q151.39 28.42 150.21 27.89Q149.03 27.37 148.24 26.47Q147.44 25.58 147.04 24.39Q146.64 23.21 146.64 21.90L146.64 21.90Q146.64 20.04 147.37 18.29Q148.10 16.54 149.40 15.18Q150.70 13.82 152.50 13.00Q154.29 12.17 156.42 12.17L156.42 12.17Q157.97 12.17 159.15 12.70Q160.34 13.22 161.14 14.10Q161.95 14.99 162.35 16.18Q162.76 17.38 162.76 18.73L162.76 18.73Q162.76 20.58 162.03 22.32Q161.29 24.05 159.99 25.41Q158.69 26.77 156.90 27.60Q155.10 28.42 152.98 28.42ZM153.70 25.01L153.70 25.01Q154.62 25.01 155.50 24.54Q156.39 24.08 157.08 23.30Q157.76 22.52 158.18 21.46Q158.60 20.40 158.60 19.20L158.60 19.20Q158.60 17.59 157.82 16.59Q157.05 15.58 155.70 15.58L155.70 15.58Q154.77 15.58 153.89 16.05Q153.01 16.51 152.32 17.30Q151.63 18.10 151.21 19.14Q150.79 20.19 150.79 21.39L150.79 21.39Q150.79 23.00 151.57 24.01Q152.35 25.01 153.70 25.01ZM162.22 34.49L166.92 12.44L170.42 12.44L169.85 15.14Q170.98 13.76 172.44 12.97Q173.89 12.17 175.59 12.17L175.59 12.17Q176.85 12.17 177.87 12.67Q178.88 13.16 179.59 14.04Q180.29 14.93 180.66 16.09Q181.04 17.26 181.04 18.61L181.04 18.61Q181.04 20.55 180.35 22.32Q179.66 24.08 178.49 25.44Q177.33 26.80 175.79 27.61Q174.25 28.42 172.57 28.42L172.57 28.42Q170.87 28.42 169.73 27.60Q168.59 26.77 168.17 25.37L168.17 25.37L166.23 34.49L162.22 34.49ZM171.97 25.01L171.97 25.01Q172.93 25.01 173.81 24.51Q174.69 24.02 175.37 23.21Q176.04 22.41 176.44 21.37Q176.85 20.34 176.85 19.26L176.85 19.26Q176.85 17.68 176.01 16.63Q175.17 15.58 173.74 15.58L173.74 15.58Q173.20 15.58 172.63 15.78Q172.06 15.97 171.52 16.33Q170.98 16.69 170.51 17.17Q170.03 17.65 169.70 18.22L169.70 18.22L168.89 21.90Q169.13 23.24 169.97 24.13Q170.81 25.01 171.97 25.01ZM188.90 28.42L188.90 28.42Q187.41 28.42 186.23 27.92Q185.04 27.43 184.21 26.55Q183.37 25.67 182.94 24.45Q182.50 23.24 182.50 21.81L182.50 21.81Q182.50 19.86 183.26 18.11Q184.03 16.36 185.36 15.05Q186.69 13.73 188.50 12.95Q190.31 12.17 192.40 12.17L192.40 12.17Q194.95 12.17 196.46 13.30Q197.97 14.42 197.97 16.54L197.97 16.54Q197.97 21.60 188.93 21.60L188.93 21.60Q188.39 21.60 187.83 21.60Q187.26 21.60 186.63 21.54L186.63 21.54L186.63 21.93Q186.63 23.51 187.35 24.50Q188.07 25.49 189.62 25.49L189.62 25.49Q190.82 25.49 191.88 24.92Q192.94 24.35 193.57 23.33L193.57 23.33L196.74 24.32Q196.14 25.22 195.27 25.98Q194.41 26.74 193.38 27.28Q192.34 27.82 191.21 28.12Q190.07 28.42 188.90 28.42ZM191.80 15.08L191.80 15.08Q190.94 15.08 190.19 15.39Q189.44 15.70 188.86 16.24Q188.27 16.78 187.83 17.50Q187.38 18.22 187.11 19.02L187.11 19.02Q187.59 19.05 188.04 19.05Q188.48 19.05 188.96 19.05L188.96 19.05Q190.40 19.05 191.40 18.91Q192.40 18.76 193.02 18.46Q193.63 18.16 193.90 17.75Q194.17 17.35 194.17 16.81L194.17 16.81Q194.17 15.94 193.51 15.51Q192.85 15.08 191.80 15.08ZM198.39 28.12L201.71 12.44L205.39 12.44L204.67 15.79Q205.80 14.18 207.21 13.24Q208.62 12.29 210.02 12.29L210.02 12.29Q210.32 12.29 210.47 12.31Q210.62 12.32 210.74 12.35L210.74 12.35L209.99 15.91Q208.29 15.94 206.78 16.62Q205.27 17.29 204.40 18.64L204.40 18.64L202.39 28.12L198.39 28.12Z"></path>
          </g>
  </svg>